# xmcd
#
# Track frame offsets:
#	150
#	16984
#	32799
#	46762
#	68885
#	83625
#	93732
#	112029
#	125577
#	147171
#	163315
#	176217
#	192880
#	211415
#	229159
#	244993
#
# Disc length: 3428 seconds
#
# Revision: 0
# Processed by: cddbd v1.5.2PL0 Copyright (c) Steve Scherf et al.
# Submitted via: dBpowerAMP V4.0
#
DISCID=e70d6210
DTITLE=JOHN CAMPBELLJOHN - Hook Slide and Sinker
DYEAR=2003
DGENRE=Blues
TTITLE0=The World Is Crazy
TTITLE1=Johnny Rock'n'Roll
TTITLE2=I Wanna Get Up
TTITLE3=The Court Of Love
TTITLE4=Martha Mae
TTITLE5=Wife and Family
TTITLE6=Phone Boothe
TTITLE7=Sunny Sky Slide
TTITLE8=Slow Down
TTITLE9=Heart Likje A Stone
TTITLE10=Ready For A Riot
TTITLE11=Non-Conformist Blues
TTITLE12=Baby Bloomer Blues
TTITLE13=Don't You Burn Your Bridges
TTITLE14=Don't Let The Drinking Do The Thinking
TTITLE15=Pretty Paula Doy
EXTD=
EXTT0=
EXTT1=
EXTT2=
EXTT3=
EXTT4=
EXTT5=
EXTT6=
EXTT7=
EXTT8=
EXTT9=
EXTT10=
EXTT11=
EXTT12=
EXTT13=
EXTT14=
EXTT15=
PLAYORDER=
